<svg xmlns="http://www.w3.org/2000/svg" xmlns:xlink="http://www.w3.org/1999/xlink" viewBox="0 0 862.22 286.87">
  <defs>
    <linearGradient id="linear-gradient" x1="201.81" y1="351.54" x2="201.81" y2="77.92" gradientUnits="userSpaceOnUse"><stop offset="0" stop-color="#03a9f4"/><stop offset="0.02" stop-color="#03a7f2"/><stop offset="0.31" stop-color="#0284cc"/><stop offset="0.58" stop-color="#016bb1"/><stop offset="0.82" stop-color="#015ca1"/><stop offset="1" stop-color="#01579b"/></linearGradient>
    <linearGradient id="linear-gradient-2" x1="557.38" y1="335.64" x2="557.38" y2="65.83" gradientUnits="userSpaceOnUse"><stop offset="0" stop-color="#0397f4"/><stop offset="0.02" stop-color="#0395f2"/><stop offset="0.31" stop-color="#027acc"/><stop offset="0.58" stop-color="#0167b1"/><stop offset="0.82" stop-color="#015ba1"/><stop offset="1" stop-color="#01579b"/></linearGradient>
    <linearGradient id="linear-gradient-3" x1="260.96" y1="68.6" x2="260.96" y2="338" gradientUnits="userSpaceOnUse"><stop offset="0" stop-color="#b3e5fc"/><stop offset="0.16" stop-color="#92dafb"/><stop offset="0.57" stop-color="#46c0f7"/><stop offset="0.86" stop-color="#15aff5"/><stop offset="1" stop-color="#03a9f4"/></linearGradient><linearGradient id="linear-gradient-4" x1="617.43" y1="65.89" x2="617.43" y2="337.42" xlink:href="#linear-gradient-3"/>
    <linearGradient id="linear-gradient-5" x1="798.74" y1="308.33" x2="798.74" y2="66.84" gradientUnits="userSpaceOnUse"><stop offset="0" stop-color="#0391f4"/><stop offset="0.02" stop-color="#038ff2"/><stop offset="0.31" stop-color="#0277cc"/><stop offset="0.58" stop-color="#0165b1"/><stop offset="0.82" stop-color="#015ba1"/><stop offset="1" stop-color="#01579b"/></linearGradient>
    <linearGradient id="linear-gradient-6" x1="812.56" y1="350.04" x2="812.56" y2="241.96" gradientUnits="userSpaceOnUse"><stop offset="0" stop-color="#ffb100"/><stop offset="0.02" stop-color="#ffae01"/><stop offset="0.31" stop-color="#ff880f"/><stop offset="0.58" stop-color="#ff6d1a"/><stop offset="0.82" stop-color="#ff5d20"/><stop offset="1" stop-color="#ff5722"/></linearGradient>
  </defs>
  <title>OvrCLogo3</title>
  <g id="white"><g id="O_Trace"><path d="M201.5,106c55.5,0,109,46.5,109,106,0,60-43.5,111-106,111C143,323,93,278.79,93,212.5,93,153.79,147,106,202,106" transform="translate(-65 -64.67)" style="fill:none;stroke:#fff;stroke-miterlimit:10;stroke-width:53px"/></g>
  <g id="V_1_Trace"><path d="M104.36,166c6.81-10.13,37-68,97-68,66.83,0,117.69,34.81,157,106.5,43.14,78.68,62.2,120.5,62.2,126.91,0,0,0,2.65,0,4.75" transform="translate(-65 -64.67)" style="fill:none;stroke:#fff;stroke-miterlimit:10;stroke-width:53px"/></g>
  <g id="V_2_Trace"><path
    d="M428.89,336.12c0-5.82,3.11-13.9,4.44-16.62,3.14-6.43,16.76-33.65,22-43,21.77-38.79,31.39-62.38,49.53-90.29,19-29.24,31.63-41.71,46.5-53.5,18.48-14.66,54.2-41.65,140.5-40.5"
    transform="translate(-65 -64.67)"
    style="fill:none;stroke:#fff;stroke-miterlimit:10;stroke-width:53px"/></g>
  <g id="R_Trace"><path d="M692,92.5c-12.86,0-54.3,6.75-82,34-22.52,22.15-28.46,36.94-35.5,69.5-5.82,26.91-3.5,89.5-3.5,140.5" transform="translate(-65 -64.67)" style="fill:none;stroke:#fff;stroke-miterlimit:10;stroke-width:53px"/></g>
  <g id="C_Trace"><path
    d="M907,138c-11.67-9.17-30.25-42.34-92.09-42.34C755,95.66,703,146.12,703,209c0,67,57.67,111,109,111,61,0,80.83-37.17,90.17-48.53,0,0,3.13-5.07,5.46-6.72"
    transform="translate(-65 -64.67)"
                        style="fill:none;stroke:#fff;stroke-miterlimit:10;stroke-width:55px"/></g></g>
  <g id="OvrC_Logo"><path id="O" d="M201.81,77.92A136.81,136.81,0,1,0,338.62,214.73,136.81,136.81,0,0,0,201.81,77.92Zm0,218.13a81.33,81.33,0,1,1,81.33-81.33A81.33,81.33,0,0,1,201.81,296.06Z" transform="translate(-65 -64.67)" style="fill:url(#linear-gradient)"/>
    <g id="V"><path
      id="V_right"
      d="M640.37,77a163,163,0,0,1,48.26-11.11h0a299.34,299.34,0,0,0-46.78,2.85s-24.89,3.16-41.67,8c0,0-23.81,7.08-44.16,18.07,0,0-27,14.44-43.45,33.08,0,0-13,11.5-34.5,46,0,0-4,7.59-23.83,42.67l-28.12,54.91c16,32.7,30.43,62.56,30.43,62.56a3.47,3.47,0,0,1,.36,1.65l72.92-136s11.93-19.55,22.47-29.17c3.29-10.27,9.62-26.66,20-41.49C585.48,110.18,602.81,90,640.37,77Z"
      transform="translate(-65 -64.67)"
      style="fill:url(#linear-gradient-2)"/><path
      id="V_top"
      d="M456.55,334s-14.39-29.87-30.43-62.56c-11.19-22.81-23.18-47-31.64-63.39,0,0-38-77.2-94.45-112.39,0,0-35.25-24.77-86.41-26.92,0,0-48.69-3.79-93.66,31,0,0-49.66,39.34-54.58,105.41-.07.94-.19,2.35-.24,3.23C65.08,209.47,65,211,65,211s1.93-3.42,3.29-5.92C72.21,197.91,89,172,112.92,155.39a144,144,0,0,1,46.66-23.33s19.74-7.32,53.26-5.35c0,0,30.53,2.62,53.3,16.41,0,0,22.89,11.38,42.94,37.5,0,0,16.47,20.08,27,41.64l1,2.09L391.27,334s2.94,4,5.84,4l56.33,0c.72,0,3.32-.36,3.46-2.33A3.47,3.47,0,0,0,456.55,334Z"
      transform="translate(-65 -64.67)"
      style="fill:url(#linear-gradient-3)"/></g><path
      id="R"
      d="M692.24,69.48c0-.14,0-.28,0-.42-.09-3.41-3.55-3.17-3.6-3.17h0A163,163,0,0,0,640.37,77c-37.55,13-54.88,33.17-68.07,52-10.38,14.84-16.71,31.23-20,41.49-2,6.23-2.88,10.2-2.88,10.2C544.11,198.9,543,226,543,226c-.36,19.66-.36,45.23-.36,45.23v63.31c.2,2.89,2.24,2.91,2.24,2.91h52.26c3.26,0,2.93-2.84,2.93-2.84V262.37c.54-28,1.62-45.83,1.62-45.83a116,116,0,0,1,6.9-35.94,75.9,75.9,0,0,1,23.54-34.68c24.42-21.53,56.62-25.05,56.62-25.05,3.7-.64,3.48-3.74,3.48-3.74Z"
      transform="translate(-65 -64.67)"
      style="fill:url(#linear-gradient-4)"/>
    <g id="C"><path
      id="C_top"
      d="M698.21,286.26c.39-.38,1.11.15,1.11.15s.39.34,1.4,1.16c6.77,5.5,29,17.69,63.83,20.52a159.88,159.88,0,0,0,17.78,0A123.2,123.2,0,0,0,853.48,283a84.1,84.1,0,1,1,31.36-124.35,15.45,15.45,0,0,0,1.41,1.73,2.79,2.79,0,0,0,4.32-.5c.78-.75,31.06-40.62,31.06-40.62a5,5,0,0,0-.32-6.87A142.3,142.3,0,0,0,691.17,275.7a129.58,129.58,0,0,0,6.73,11.24A.78.78,0,0,1,698.21,286.26Z"
      transform="translate(-65 -64.67)"
      style="fill:url(#linear-gradient-5)"/><path
      id="C_bottom"
      d="M925.3,284.53l-32.17-40.3c-2-3.27-4-2.34-4.62-1.29a130.9,130.9,0,0,1-35,40.09,123.2,123.2,0,0,1-71.15,25.07,159.88,159.88,0,0,1-17.78,0c-34.79-2.83-57.06-15-63.83-20.52-1-.82-1.4-1.16-1.4-1.16s-.72-.53-1.11-.15a.78.78,0,0,0-.3.68.65.65,0,0,0,.2.37c5.77,9.09,13.38,17.19,19.77,23.18l.47.44,1.72,1.58,1,.89c.65.58,1.3,1.15,2,1.72l.14.12c4.33,3.72,7.29,5.88,7.29,5.88,35.74,27.91,76.47,28.7,76.47,28.7,48.37,2.77,80.6-22.43,80.6-22.43C913,310.49,926,291.31,926,291.31,929.15,288.13,925.3,284.53,925.3,284.53Z"
      transform="translate(-65 -64.67)"
      style="fill-rule:evenodd;fill:url(#linear-gradient-6)"/></g>
  </g>
</svg>
